<?xml version="1.0" encoding="utf-8"?>
<!-- Generator: Adobe Illustrator 24.0.3, SVG Export Plug-In . SVG Version: 6.00 Build 0)  -->
<svg version="1.1" id="Layer_1" xmlns="http://www.w3.org/2000/svg" xmlns:xlink="http://www.w3.org/1999/xlink" x="0px" y="0px"
	 viewBox="0 0 40 40" style="enable-background:new 0 0 40 40;" xml:space="preserve">
<style type="text/css">
	.st0{fill:#FF13DC;fill-opacity:0;}
	.st1{fill:#707070;}
</style>
<title>S DataAdd 18 N</title>
<rect id="Canvas" y="0.1" class="st0" width="40" height="40"/>
<path class="st1" d="M15.5,7.6c1.7,1.7,4.5,1.7,6.2,0c1.7-1.7,1.7-4.5,0-6.2c-1.7-1.7-4.5-1.7-6.2,0c0.5,1,0.8,2,0.8,3.1
	C16.3,5.6,16,6.6,15.5,7.6z M18.9,10.1h-0.5c-0.5,0-1,0-1.5,0.1c1.7,1.5,2.6,3.7,2.6,6v10.5c0,1.6-1.3,2.8-2.8,2.8h-0.4l-0.9,9.7
	l0,0.4c0,0.3,0.3,0.5,0.6,0.5h5.3c0.3,0,0.6-0.2,0.6-0.5l1.2-12.3h2.4c0.3,0,0.6-0.3,0.6-0.6V16.2C26.1,12.1,22.9,10.1,18.9,10.1z"
	/>
<path class="st1" d="M25,7.6c1.7,1.7,4.5,1.7,6.2,0c1.7-1.7,1.7-4.5,0-6.2c-1.7-1.7-4.5-1.7-6.2,0c0.5,1,0.8,2,0.8,3.1
	C25.8,5.6,25.5,6.6,25,7.6z M28.3,10.1h-0.5c-0.5,0-1,0-1.5,0.1c1.7,1.5,2.6,3.7,2.6,6v10.5c0,1.6-1.3,2.8-2.8,2.8h-0.4l-0.9,9.7
	l0,0.4c0,0.3,0.3,0.5,0.6,0.5h5.3c0.3,0,0.6-0.2,0.6-0.5l1.2-12.3h2.4c0.3,0,0.6-0.3,0.6-0.6V16.2C35.6,12.1,32.3,10.1,28.3,10.1z"
	/>
<path class="st1" d="M14.1,4.5c0,2.4-2,4.4-4.4,4.4c-2.4,0-4.4-2-4.4-4.4c0-2.4,2-4.4,4.4-4.4C12.1,0.1,14.1,2.1,14.1,4.5L14.1,4.5z
	 M10,10.1H9.5c-4,0-7.3,2-7.3,6.1v10.5c0,0.3,0.3,0.6,0.6,0.6c0,0,0,0,0,0h2.4l1.1,12.3c0,0.3,0.3,0.5,0.6,0.5h5.3
	c0.3,0,0.6-0.2,0.6-0.5l1.2-12.3h2.4c0.3,0,0.6-0.3,0.6-0.6l0,0V16.2C17.2,12.1,14,10.1,10,10.1z"/>
</svg>
