<?xml version="1.0" encoding="utf-8"?>
<!-- Generator: Adobe Illustrator 24.3.0, SVG Export Plug-In . SVG Version: 6.00 Build 0)  -->
<svg version="1.1" id="Layer_1" xmlns="http://www.w3.org/2000/svg" xmlns:xlink="http://www.w3.org/1999/xlink" x="0px" y="0px"
	 viewBox="0 0 40 40" style="enable-background:new 0 0 40 40;" xml:space="preserve">
<style type="text/css">
	.st0{fill:#FF13DC;fill-opacity:0;}
	.st1{fill:#6E6E6E;}
</style>
<rect id="Canvas" x="3.5" y="2.6" class="st0" width="33.6" height="33.6"/>
<path class="st1" d="M34.3,6.4h-28c-0.5,0-0.9,0.4-0.9,0.9v22.4c0,0.5,0.4,0.9,0.9,0.9h2.2c0.5-0.7,1.1-1.3,1.8-1.9h-3V12h26.1v16.8
	h-3.2c0.7,0.5,1.4,1.2,1.9,1.9h2.3c0.5,0,0.9-0.4,0.9-0.9V7.3C35.2,6.8,34.8,6.4,34.3,6.4z"/>
<path class="st1" d="M23.3,27.9v-1.6c0-0.3,0.1-0.5,0.3-0.7c1.2-1.5,1.9-3.3,1.9-5.2c0-3.9-2.1-6.1-5.2-6.1S15,16.7,15,20.5
	c0.1,1.9,0.7,3.7,2,5.2c0.2,0.2,0.3,0.4,0.3,0.7v1.6c0,0.5-0.4,1-0.9,1.1c-6.3,0.5-7.2,4.8-7.2,6.5c0,0.2,0,0.7,0,0.7h22.4v-0.7
	c0-1.6-1.1-5.9-7.3-6.5C23.7,28.9,23.3,28.4,23.3,27.9z"/>
</svg>
