<?xml version="1.0" encoding="utf-8"?>
<!-- Generator: Adobe Illustrator 24.3.0, SVG Export Plug-In . SVG Version: 6.00 Build 0)  -->
<svg version="1.1" id="Layer_1" xmlns="http://www.w3.org/2000/svg" xmlns:xlink="http://www.w3.org/1999/xlink" x="0px" y="0px"
	 viewBox="0 0 40 40" style="enable-background:new 0 0 40 40;" xml:space="preserve">
<style type="text/css">
	.st0{fill:#FF13DC;fill-opacity:0;}
	.st1{fill:#6E6E6E;}
</style>
<rect id="Canvas" x="2" y="1.3" class="st0" width="35.7" height="35.7"/>
<path class="st1" d="M33.7,6.3c0-0.6-0.5-1-1.1-1H3.1C2.5,5.3,2,5.7,2,6.3v21.8c0,0.6,0.5,1,1.1,1H4V7.3h29.7V6.3z"/>
<path class="st1" d="M36.7,9.3H7c-0.5,0-1,0.4-1,1V32c0,0.5,0.4,1,1,1h29.7c0.5,0,1-0.4,1-1V10.3C37.7,9.7,37.2,9.3,36.7,9.3z
	 M35.7,28.5l-5.2-5.2c-0.8-0.8-2-0.8-2.8,0l-3,3l-7.5-7.5c-0.8-0.8-2-0.8-2.8,0l-6.4,6.4V11.2h27.7V28.5z"/>
<circle class="st1" cx="30.7" cy="16.2" r="2.5"/>
</svg>
