<?xml version="1.0" encoding="utf-8"?>
<!-- Generator: Adobe Illustrator 24.3.0, SVG Export Plug-In . SVG Version: 6.00 Build 0)  -->
<svg version="1.1" id="Layer_1" xmlns="http://www.w3.org/2000/svg" xmlns:xlink="http://www.w3.org/1999/xlink" x="0px" y="0px"
	 viewBox="0 0 40 40" style="enable-background:new 0 0 40 40;" xml:space="preserve">
<style type="text/css">
	.st0{fill:#FF13DC;fill-opacity:0;}
	.st1{fill:#6E6E6E;}
</style>
<polyline id="Canvas" class="st0" points="1,1.5 38.5,1.5 38.5,39 1,39 1,1.5 "/>
<path class="st1" d="M14,23.4c-1.6-0.3-3.2,0.2-4.4,1.2c-1.3,1.4-2.2,3.1-2.8,5c-0.1,2.2-1.5,4.1-3.5,5c-0.3,0.1-0.4,0.4-0.4,0.7
	C3.1,35.7,3.4,36,3.7,36c0.6,0.2,1.3,0.3,2.1,0.4c2.7,0.4,7.8,0.8,11.2-1.7c1.6-1.1,2.6-2.8,2.9-4.7C19.7,26.7,17.3,24,14,23.4z"/>
<path class="st1" d="M21.7,26.6c7.5-8.6,17.1-20.3,14.6-22.8S23.4,13,16,21.1C18.5,22.1,20.6,24.1,21.7,26.6z"/>
</svg>
