<?xml version="1.0" encoding="utf-8"?>
<!-- Generator: Adobe Illustrator 24.0.3, SVG Export Plug-In . SVG Version: 6.00 Build 0)  -->
<svg version="1.1" id="Layer_1" xmlns="http://www.w3.org/2000/svg" xmlns:xlink="http://www.w3.org/1999/xlink" x="0px" y="0px"
	 viewBox="0 0 40 40" style="enable-background:new 0 0 40 40;" xml:space="preserve">
<style type="text/css">
	.st0{fill:#FF13DC;fill-opacity:0;}
	.st1{fill:#707070;}
</style>
<title>S DataAdd 18 N</title>
<rect id="Canvas" class="st0" width="40" height="40"/>
<path class="st1" d="M12.9,33.5c0-4.8,3.9-8.8,8.8-8.8c0.7,0,1.5,0.1,2.2,0.3l1-1c0,0,0-0.1,0-0.1v-2.5c0-0.4,0.2-0.8,0.4-1.1
	c1.9-2.3,2.9-5.2,3-8.1c0-6.2-3.3-9.6-8.2-9.6s-8.3,3.6-8.3,9.6c0.1,3,1.2,5.9,3.1,8.1c0.3,0.3,0.4,0.7,0.4,1.1v2.5
	c0,0.9-0.6,1.6-1.5,1.7C3.8,26.5,2.3,33.3,2.3,36c0,0.3,0,1.5,0.1,1.8H14C13.3,36.5,12.9,35,12.9,33.5z"/>
<path class="st1" d="M39.6,23.2l-4.4-4.4c-0.4-0.4-1-0.4-1.4,0l-9.3,9.3c-0.9-0.5-1.8-0.7-2.8-0.7c-3.4,0-6.1,2.7-6.1,6.1
	s2.7,6.1,6.1,6.1c3.4,0,6.1-2.7,6.1-6.1c0-1-0.3-1.9-0.7-2.8l4.6-4.6l2.5,2.5c0.2,0.2,0.5,0.2,0.7,0c0,0,0,0,0,0l0,0l2.3-2.3
	l-2.9-2.9l0.8-0.8l2.9,2.9l1.7-1.7C39.8,23.7,39.8,23.4,39.6,23.2L39.6,23.2L39.6,23.2z M21,36.2c-1.1,0-2-0.9-2-2c0-1.1,0.9-2,2-2
	c1.1,0,2,0.9,2,2l0,0C23,35.3,22.1,36.2,21,36.2z"/>
</svg>
