<?xml version="1.0" encoding="UTF-8"?>
<svg id="ImportedIcons" xmlns="http://www.w3.org/2000/svg" width="18" height="18" viewBox="0 0 18 18">
  <defs>
    <style>
      .fill {
        fill: #0065DC;
      }
    </style>
  </defs>
  <rect id="Canvas" fill="#ff13dc" opacity="0" width="18" height="18" />
  <path class="fill" d="m9.25,3.96c-2.23831-.07353-4.11242,1.68136-4.18596,3.91967,0,0-.00166.18034-.00004.27033.02019,1.12172.49326,2.19212,1.285,2.987.45737.45919.75907,1.0503.85,1.692v2.591c.0001.27721.11526.54194.318.731l.765.714c.09347.08751.21696.13584.345.135h1.242c.12666-.00018.24854-.04843.341-.135l.768-.715c.20298-.1888.31789-.45379.317-.731v-2.3c-.01011-.40147.0763-.8015.265-1.156.34151-.64159.89749-1.14455,1.282-1.763.38265-.61546.58018-1.32342.594-2.048.04273-2.24008-1.67779-4.11624-3.917-4.192-.089-.00301-.179-.003-.269,0Zm1.969,6.428c-.40074.44404-.7294.94816-.974,1.494-.12285.35656-.18208.73194-.175,1.109h-1.636c.00428-.23465-.01063-.46994-.057-.7-.06237-.30943-.18117-.60559-.344-.876-.22014-.36558-.47579-.70856-.753-1.033-.60812-.58917-.972-1.38564-1.02-2.231-.0888-1.56402,1.10619-2.90148,2.67-2.994.10658-.00631.21343-.0065.32,0,1.56559-.08583,2.90432,1.11374,2.99016,2.67933.00573.10448.00565.20919-.00016.31367-.0471.84782-.4114,1.64689-1.021,2.238ZM9.046,0h.409c.22588,0,.409.18312.409.409v2.046c0,.22588-.18312.409-.409.409h-.409c-.22588,0-.409-.18312-.409-.409V.409c0-.22588.18312-.409.409-.409Zm5.931,7.773h2.046c.22589,0,.409.18312.409.409v.409c0,.22588-.18312.409-.409.409h-2.046c-.22588,0-.409-.18312-.409-.409v-.409c0-.22588.18312-.409.409-.409Zm-13.5,0h2.046c.22588,0,.409.18312.409.409v.409c0,.22588-.18312.409-.409.409H1.477c-.22588,0-.409-.18312-.409-.409v-.409c0-.22588.18312-.409.409-.409Zm1.11486-4.86353l.28921-.28921c.15972-.15972.41869-.15972.57841,0l1.44603,1.44603c.15972.15972.15972.41869,0,.57841l-.28921.28921c-.15972.15972-.41869.15972-.57841,0l-1.44603-1.44603c-.15972-.15972-.15972-.41869,0-.57841Zm11.00017,1.15665l1.44603-1.44603c.15972-.15972.41869-.15972.57841,0l.28921.28921c.15972.15972.15972.41869,0,.57841l-1.44603,1.44603c-.15972.15972-.41869.15972-.57841,0l-.28921-.28921c-.15972-.15972-.15972-.41869,0-.57841Z"/>
</svg>