<?xml version="1.0" encoding="UTF-8"?>
<svg id="ImportedIcons" xmlns="http://www.w3.org/2000/svg" width="18" height="18" viewBox="0 0 18 18">
  <defs>
    <style>
      .fill {
        fill: #464646;
      }
    </style>
  </defs>
  <rect id="Canvas" fill="#ff13dc" opacity="0" width="18" height="18" />
  <path class="fill" d="m8.99967,5.99985l2.9999-2.9999,2.9999,2.9999-2.9999,2.9999-2.9999-2.9999Zm3.49529,4.95624l.55751.5576c.15405.15408.40383.1541.55791.00005l3.90392-3.90324c.15408-.15405.1541-.40383.00005-.55791l-.55751-.5576c-.15405-.15408-.40383-.1541-.55791-.00005l-3.90392,3.90324c-.15408.15405-.1541.40383-.00005.55791Zm-5.99359-5.99274l.55751.5576c.15405.15408.40383.1541.55791.00005l3.90392-3.90324c.15408-.15405.1541-.40383.00005-.55791l-.55751-.5576c-.15405-.15408-.40383-.1541-.55791-.00005l-3.90392,3.90324c-.15408.15405-.1541.40383-.00005.55791Zm-3.41037,12.06665l7.409-8.03-1.5-1.5L.96966,14.90934c-.2928.29299-.29265.76786.00034,1.06066l1.06034,1.06034c.29299.2928.76786.29265,1.06066-.00034Zm13.909-2.03v-.5c0-.27614-.22386-.5-.5-.5h-5c-.27614,0-.5.22386-.5.5v.5h-.75c-.13807,0-.25.11193-.25.25v1.5c0,.13807.11193.25.25.25h7.5c.13807,0,.25-.11193.25-.25v-1.5c0-.13807-.11193-.25-.25-.25h-.75Z"/>
</svg>